<svg width="233" height="233" viewBox="0 0 233 233" fill="none" xmlns="http://www.w3.org/2000/svg">
<circle cx="116.5" cy="116.5" r="116.5" fill="#0E1B31"/>
<path d="M41.3679 115.599V103.561C47.5469 103.561 51.826 102.336 54.2053 99.8857C56.62 97.4354 57.8274 93.5469 57.8274 88.2202V78.1527C57.8274 71.0149 58.875 65.4041 60.9702 61.3203C63.1009 57.2365 65.995 54.2358 69.6527 52.3182C73.3459 50.4006 77.6072 49.1932 82.4368 48.696C87.2663 48.1633 92.3977 47.897 97.831 47.897V67.0199C93.5696 67.0199 90.3736 67.5348 88.2429 68.5646C86.1477 69.5945 84.745 71.157 84.0348 73.2521C83.3246 75.3473 82.9695 77.9929 82.9695 81.1889V94.8253C82.9695 97.5241 82.419 100.116 81.3182 102.602C80.2173 105.088 78.1932 107.308 75.2457 109.261C72.2983 111.214 68.0902 112.759 62.6215 113.895C57.1882 115.031 50.1037 115.599 41.3679 115.599ZM97.831 182.183C92.3977 182.183 87.2663 181.917 82.4368 181.384C77.6072 180.887 73.3459 179.68 69.6527 177.762C65.995 175.844 63.1009 172.844 60.9702 168.76C58.875 164.676 57.8274 159.065 57.8274 151.928V141.913C57.8274 136.551 56.62 132.663 54.2053 130.248C51.826 127.798 47.5469 126.572 41.3679 126.572V114.481C50.1037 114.481 57.1882 115.067 62.6215 116.239C68.0902 117.375 72.2983 118.92 75.2457 120.873C78.1932 122.79 80.2173 124.992 81.3182 127.478C82.419 129.964 82.9695 132.556 82.9695 135.255V148.891C82.9695 152.087 83.3246 154.733 84.0348 156.828C84.745 158.923 86.1477 160.486 88.2429 161.516C90.3736 162.545 93.5696 163.06 97.831 163.06V182.183ZM41.3679 126.572V103.561H62.6215V126.572H41.3679ZM192.287 114.481V126.572C186.143 126.572 181.864 127.798 179.449 130.248C177.035 132.663 175.827 136.551 175.827 141.913V151.928C175.827 159.065 174.762 164.676 172.631 168.76C170.536 172.844 167.642 175.844 163.949 177.762C160.291 179.68 156.047 180.887 151.218 181.384C146.424 181.917 141.292 182.183 135.824 182.183V163.06C140.085 163.06 143.263 162.545 145.358 161.516C147.489 160.486 148.91 158.923 149.62 156.828C150.33 154.733 150.685 152.087 150.685 148.891V135.255C150.685 132.556 151.236 129.964 152.336 127.478C153.437 124.992 155.461 122.79 158.409 120.873C161.356 118.92 165.547 117.375 170.98 116.239C176.449 115.067 183.551 114.481 192.287 114.481ZM135.824 47.897C141.292 47.897 146.424 48.1633 151.218 48.696C156.047 49.1932 160.291 50.4006 163.949 52.3182C167.642 54.2358 170.536 57.2365 172.631 61.3203C174.762 65.4041 175.827 71.0149 175.827 78.1527V88.2202C175.827 93.5469 177.035 97.4354 179.449 99.8857C181.864 102.336 186.143 103.561 192.287 103.561V115.599C183.551 115.599 176.449 115.031 170.98 113.895C165.547 112.759 161.356 111.214 158.409 109.261C155.461 107.308 153.437 105.088 152.336 102.602C151.236 100.116 150.685 97.5241 150.685 94.8253V81.1889C150.685 77.9929 150.33 75.3473 149.62 73.2521C148.91 71.157 147.489 69.5945 145.358 68.5646C143.263 67.5348 140.085 67.0199 135.824 67.0199V47.897ZM192.287 103.561V126.572H171.033V103.561H192.287Z" fill="#6A59D1"/>
</svg>
